#!OML:ASF E:\Style4\Style4.ASF
:FULLY-SPECIFIED
:DEGREES
3196
root 0.130817 17.2718 -2.46752 5.65333 1.4793 2.95201
lowerback 15.3516 2.03342 -2.09969
upperback 9.81288 2.42146 0.173991
thorax 1.71195 1.12067 1.03533
lowerneck -1.48176 -3.05729 -4.71359
upperneck 11.7501 -3.84689 0.321374
head 4.23569 -2.06886 0.777364
rclavicle -7.95139e-015 -3.57812e-015
rhumerus -8.88554 41.8645 -73.0678
rradius 49.7135
rwrist -50.1072
rhand -5.39595 -1.93898
rfingers 7.12502
rthumb 20.4129 -30.886
lclavicle -7.95139e-015 -3.57812e-015
lhumerus -5.01934 -66.138 73.0093
lradius 63.0914
lwrist 48.0118
lhand -8.21043 29.355
lfingers 7.12502
lthumb 17.7064 58.5688
rfemur -30.9653 -2.96187 16.8903
rtibia 47.3356
rfoot -20.7955 -13.954
rtoes -6.83023
lfemur -29.3182 -0.866325 -22.6638
ltibia 44.0402
lfoot -20.2825 7.85275
ltoes -12.9365
3197
root 0.132729 17.3284 -2.44572 6.03216 1.43385 2.92098
lowerback 15.1575 2.08583 -1.97795
upperback 9.68784 2.50755 0.120395
thorax 1.68322 1.17158 0.902987
lowerneck -1.61184 -3.12151 -4.76573
upperneck 11.915 -3.93758 0.469881
head 4.32999 -2.11072 0.829575
rclavicle -1.19271e-014 1.59028e-015
rhumerus -11.7682 43.7292 -73.5595
rradius 53.1583
rwrist -49.6667
rhand -6.18817 -1.02232
rfingers 7.12502
rthumb 19.6515 -30.0491
lclavicle -1.19271e-014 1.59028e-015
lhumerus -8.71158 -66.1194 74.7867
lradius 65.6022
lwrist 45.8346
lhand -5.27717 28.0534
lfingers 7.12502
lthumb 20.5271 56.9882
rfemur -30.7311 -2.86636 16.9152
rtibia 46.3075
rfoot -20.5154 -13.8507
rtoes -6.20819
lfemur -29.0374 -0.949008 -22.6273
ltibia 42.9524
lfoot -19.8771 8.11502
ltoes -13.2071
3198
root 0.13457 17.3829 -2.42477 6.31731 1.36799 2.95329
lowerback 15.1081 2.12417 -1.97862
upperback 9.52755 2.55613 0.0542377
thorax 1.53878 1.19966 0.82574
lowerneck -1.54684 -3.15893 -4.63335
upperneck 11.9801 -3.99438 0.440627
head 4.33744 -2.13463 0.794302
rclavicle -7.15625e-015 -1.59028e-015
rhumerus -14.7014 45.274 -74.1615
rradius 56.5266
rwrist -48.7495
rhand -6.4849 -0.203359
rfingers 7.12502
rthumb 19.3662 -29.259
lclavicle -7.15625e-015 -1.59028e-015
lhumerus -12.7223 -65.8892 76.7202
lradius 68.2718
lwrist 44.0187
lhand -2.48717 27.8692
lfingers 7.12502
lthumb 23.2061 56.4911
rfemur -30.4157 -2.7937 16.8647
rtibia 45.2751
rfoot -20.134 -13.7791
rtoes -6.07551
lfemur -28.6378 -1.01367 -22.6567
ltibia 41.8387
lfoot -19.3636 8.23595
ltoes -12.9543
3199
root 0.137388 17.4357 -2.4052 6.5944 1.31113 2.9736
lowerback 14.9841 2.14218 -2.0225
upperback 9.42308 2.57592 0.0259941
thorax 1.49105 1.20925 0.820097
lowerneck -1.50876 -3.17133 -4.52656
upperneck 12.0215 -4.0166 0.42401
head 4.34167 -2.14193 0.769165
rclavicle 1.63003e-014 -7.15625e-015
rhumerus -17.4584 46.4269 -74.632
rradius 59.8541
rwrist -47.7159
rhand -6.30016 0.276291
rfingers 7.12502
rthumb 19.5438 -28.7614
lclavicle 1.63003e-014 -7.15625e-015
lhumerus -16.5726 -65.4795 78.4739
lradius 71.0402
lwrist 42.4179
lhand -0.484828 27.792
lfingers 7.12502
lthumb 25.1259 56.1587
rfemur -30.0818 -2.76875 16.8262
rtibia 44.231
rfoot -19.7326 -13.6795
rtoes -5.84405
lfemur -28.2333 -1.09272 -22.6725
ltibia 40.7324
lfoot -19.0326 8.31648
ltoes -12.3803
3200
root 0.140512 17.4892 -2.38594 6.91385 1.26089 2.97995
lowerback 14.7635 2.17842 -2.03484
upperback 9.32425 2.62628 0.0269718
thorax 1.4992 1.23417 0.826776
lowerneck -1.4649 -3.19584 -4.60056
upperneck 12.0566 -4.05889 0.533828
head 4.3527 -2.1614 0.817708
rclavicle 1.03368e-014 1.94809e-014
rhumerus -20.1663 47.0876 -75.0411
rradius 63.0587
rwrist -47.0506
rhand -5.66019 0.560678
rfingers 7.12502
rthumb 20.159 -28.4134
lclavicle 1.03368e-014 1.94809e-014
lhumerus -20.2129 -65.2317 80.04
lradius 73.8287
lwrist 40.956
lhand 0.641615 27.0937
lfingers 7.12502
lthumb 26.2048 55.3047
rfemur -29.7898 -2.71921 16.8031
rtibia 43.1838
rfoot -19.3192 -13.6179
rtoes -5.62152
lfemur -27.8913 -1.26892 -22.6642
ltibia 39.6371
lfoot -18.6792 8.57864
ltoes -12.3164
3201
root 0.141237 17.5401 -2.36731 7.24361 1.20684 2.91124
lowerback 14.5851 2.23075 -1.96542
upperback 9.16888 2.70514 0.0291607
thorax 1.42739 1.27761 0.782494
lowerneck -1.37131 -3.23026 -4.67396
upperneck 12.1248 -4.12222 0.694417
head 4.36831 -2.18928 0.882917
rclavicle 8.74653e-015 0
rhumerus -22.9219 47.3943 -75.5254
rradius 66.1259
rwrist -47.0526
rhand -4.42096 0.658135
rfingers 7.12502
rthumb 21.3497 -28.1857
lclavicle 8.74653e-015 0
lhumerus -23.7932 -65.1667 81.4436
lradius 76.6298
lwrist 39.65
lhand 1.38139 26.5244
lfingers 7.12502
lthumb 26.9128 54.6283
rfemur -29.51 -2.58088 16.866
rtibia 42.1331
rfoot -18.9018 -13.6579
rtoes -5.55111
lfemur -27.5922 -1.40902 -22.5628
ltibia 38.5804
lfoot -18.3871 8.76067
ltoes -12.0238
3202
root 0.140594 17.5868 -2.35119 7.55655 1.13594 2.82494
lowerback 14.4203 2.27247 -1.89153
upperback 9.02435 2.77015 0.024809
thorax 1.36142 1.31421 0.730667
lowerneck -1.32691 -3.23894 -4.59133
upperneck 12.2337 -4.1407 0.704549
head 4.39733 -2.19511 0.87092
rclavicle 2.42517e-014 -1.35174e-014
rhumerus -25.5362 47.5482 -75.9457
rradius 69.0868
rwrist -47.6956
rhand -2.94033 0.342608
rfingers 7.12502
rthumb 22.7712 -28.3335
lclavicle 2.42517e-014 -1.35174e-014
lhumerus -27.374 -64.9363 82.7302
lradius 79.4314
lwrist 38.3016
lhand 2.06281 26.6426
lfingers 7.12502
lthumb 27.5647 54.6442
rfemur -29.2278 -2.36555 16.9523
rtibia 41.0974
rfoot -18.4431 -13.8001
rtoes -5.62325
lfemur -27.3064 -1.46002 -22.4447
ltibia 37.5485
lfoot -18.0524 8.89022
ltoes -11.8792
3203
root 0.142154 17.6323 -2.33228 7.84341 1.01842 2.7242
lowerback 14.1843 2.30554 -1.85041
upperback 8.92033 2.82233 0.0650199
thorax 1.37334 1.3409 0.749175
lowerneck -1.2958 -3.22437 -4.64393
upperneck 12.3579 -4.12328 0.743253
head 4.4389 -2.18832 0.893823
rclavicle 2.34566e-014 3.97569e-016
rhumerus -28.0022 47.7171 -76.1314
rradius 72.0346
rwrist -48.9065
rhand -1.42978 -0.259997
rfingers 7.12502
rthumb 24.2202 -28.7505
lclavicle 2.34566e-014 3.97569e-016
lhumerus -30.7704 -64.6361 83.874
lradius 82.1205
lwrist 37.0131
lhand 2.37656 26.6018
lfingers 7.12502
lthumb 27.8647 54.5551
rfemur -28.9427 -2.14699 17.046
rtibia 40.096
rfoot -18.0081 -13.9332
rtoes -5.84884
lfemur -26.9883 -1.49857 -22.318
ltibia 36.5428
lfoot -17.6938 9.08412
ltoes -12.1506
3204
root 0.14285 17.6773 -2.3149 8.11641 0.949329 2.67725
lowerback 13.9794 2.31911 -1.86824
upperback 8.8047 2.84168 0.095309
thorax 1.35568 1.34954 0.793231
lowerneck -1.16236 -3.22387 -4.7285
upperneck 12.3904 -4.13373 0.829241
head 4.4301 -2.19396 0.939169
rclavicle -2.10712e-014 2.10712e-014
rhumerus -30.386 47.8034 -76.2506
rradius 74.863
rwrist -50.565
rhand 0.226028 -0.904382
rfingers 7.12502
rthumb 25.8069 -29.1739
lclavicle -2.10712e-014 2.10712e-014
lhumerus -34.0246 -64.2916 84.8401
lradius 84.6975
lwrist 35.7068
lhand 2.42932 26.3948
lfingers 7.12502
lthumb 27.9151 54.34
rfemur -28.6587 -2.02323 17.0792
rtibia 39.1351
rfoot -17.6776 -13.96
rtoes -5.79127
lfemur -26.6594 -1.57522 -22.2478
ltibia 35.5514
lfoot -17.2588 9.2312
ltoes -11.8603
3205
root 0.140349 17.717 -2.30393 8.43932 0.9901 2.6896
lowerback 13.7939 2.30815 -1.90505
upperback 8.65038 2.82636 0.0925469
thorax 1.28868 1.34187 0.816227
lowerneck -1.00822 -3.2222 -4.70388
upperneck 12.4277 -4.14321 0.860088
head 4.41358 -2.19665 0.946867
rclavicle 1.59028e-015 2.38542e-015
rhumerus -32.745 47.8041 -76.3792
rradius 77.5835
rwrist -52.5452
rhand 1.76591 -1.64268
rfingers 7.12502
rthumb 27.2807 -29.6893
lclavicle 1.59028e-015 2.38542e-015
lhumerus -37.1341 -63.8699 85.6152
lradius 87.1942
lwrist 34.37
lhand 2.43578 26.0666
lfingers 7.12502
lthumb 27.9213 54.0108
rfemur -28.4546 -1.93043 17.0732
rtibia 38.2037
rfoot -17.2584 -14.1297
rtoes -6.06059
lfemur -26.4338 -1.73558 -22.2146
ltibia 34.5693
lfoot -16.848 9.3205
ltoes -11.367
